<svg id="Calque_1" data-name="Calque 1" xmlns="http://www.w3.org/2000/svg" viewBox="0 0 832.54 366.19"><defs><style>.cls-1{fill:none;stroke:#fff;stroke-miterlimit:10;stroke-width:1.55px;}</style></defs><title>Nike</title><path class="cls-1" d="M835.22,59.29v2.32a20.33,20.33,0,0,0-2,3.28c-7.47,19.43-15.07,38.82-22.19,58.38-1.84,5-4,7-9.72,7-28.22-.35-56.45,0-84.68-.28-4.93,0-7.77.89-9.17,6.07-1.51,5.55-4.06,10.82-6.13,16.23-6,15.6-12,31.21-18.18,47.44h90.67a24.87,24.87,0,0,1-.66,3.23c-8.21,21.42-16.57,42.78-24.58,64.27-1.35,3.63-3.66,3.28-6.34,3.28-27.26,0-54.52.05-81.78-.09-3.42,0-5,1-6.21,4.25-8.48,22.54-17.18,45-25.79,67.51-1.29,3.36-2.49,6.75-4,10.84h105a9,9,0,0,1-.12,2.19c-8.29,21.6-16.73,43.14-24.82,64.81-1.36,3.68-3.5,3.86-6.57,3.86q-123-.06-245.95,0c-1.87,0-3.74-.19-6.2-.33,4-48.32,8-96.21,12.16-145.53-8.52,9-16,16.37-20.05,27.33-14,38.18-28.94,76-43.66,113.92-.68,1.74-2.72,4.22-4.15,4.24-25.11.26-50.23.18-76.11.18L453.81,59.44h78.66L494,149.85a3.34,3.34,0,0,0,2.69-1c26.3-28.32,52.67-56.56,78.75-85.08a12.42,12.42,0,0,1,10.33-4.5Q710.52,59.37,835.22,59.29Zm-180.92,9-.68-.41c-.9.85-1.87,1.65-2.68,2.57q-54.72,61.83-109.3,123.77a18.36,18.36,0,0,0-4.21,10.17c-1.21,19.08-1.82,38.2-2.75,57.3-1.41,29.13-3.14,58.24-4.28,87.38-.56,14.37-.1,28.79-.1,42.24C571.32,284.5,612.81,176.41,654.3,68.32Z" transform="translate(-3.45 -58.41)"/><path class="cls-1" d="M345.55,59.3c-23.83,0-46.64.09-69.44-.1-3.71,0-4.45,2.09-5.43,4.67q-21.15,55.35-42.37,110.69c-4.58,12-9.26,23.89-13.9,35.83l-1.28-.23C214,160,215,109.78,215.87,59.29c-22.84,0-44.67.12-66.5-.1-4,0-5.59,1.3-7,4.93Q79.51,228.27,16.4,392.34C12.48,402.55,8.66,412.8,4.57,423.6c22.93,0,45.15-.14,67.35.13,4.47,0,6.37-1.48,7.89-5.47q29.85-78.36,60-156.61c.56-1.46,1.31-2.83,2-4.25l.9.32c-1.8,55.14-3.6,110.28-5.42,165.87,22.64,0,44.46.08,66.27-.21,1.36,0,3.25-2.7,4-4.51Q267.24,263.73,326.8,108.51C333,92.36,339.12,76.18,345.55,59.3ZM220.78,423.6h6.5c22.43,0,44.86-.11,67.29.11,4.15,0,5.82-1.3,7.3-5.17Q364.11,256,426.63,93.55C431,82.31,435.15,71,439.58,59.29c-25.71,0-50.65.1-75.58-.1-3.82,0-4.38,2.32-5.34,4.8Q294.31,231.58,230,399.17C226.94,407,224,414.94,220.78,423.6Z" transform="translate(-3.45 -58.41)"/><path class="cls-1" d="M654.3,68.32c-41.49,108.09-83,216.18-124,323,0-13.45-.46-27.87.1-42.24,1.14-29.14,2.87-58.25,4.28-87.38.93-19.1,1.54-38.22,2.75-57.3a18.36,18.36,0,0,1,4.21-10.17q54.45-62.06,109.3-123.77c.81-.92,1.78-1.72,2.68-2.57Z" transform="translate(-3.45 -58.41)"/><path class="cls-1" d="M345.55,59.3C339.12,76.18,333,92.36,326.8,108.51q-59.61,155.2-119.34,310.36c-.7,1.81-2.59,4.5-4,4.51-21.81.29-43.63.21-66.27.21,1.82-55.59,3.62-110.73,5.42-165.87l-.9-.32c-.67,1.42-1.42,2.79-2,4.25q-30,78.28-60,156.61c-1.52,4-3.42,5.52-7.89,5.47-22.2-.27-44.42-.13-67.35-.13,4.09-10.8,7.91-21.05,11.83-31.26q63-164.1,126-328.22c1.39-3.63,3-5,7-4.93,21.83.22,43.66.1,66.5.1C215,109.78,214,160,213.13,210.16l1.28.23c4.64-11.94,9.32-23.87,13.9-35.83q21.23-55.34,42.37-110.69c1-2.58,1.72-4.7,5.43-4.67C298.91,59.39,321.72,59.3,345.55,59.3Z" transform="translate(-3.45 -58.41)"/><path class="cls-1" d="M220.78,423.6c3.25-8.66,6.16-16.56,9.18-24.43Q294.3,231.58,358.66,64c1-2.48,1.52-4.83,5.34-4.8,24.93.2,49.87.1,75.58.1-4.43,11.74-8.63,23-12.95,34.26Q364.22,256,301.87,418.54c-1.48,3.87-3.15,5.21-7.3,5.17-22.43-.22-44.86-.1-67.29-.11Z" transform="translate(-3.45 -58.41)"/></svg>